<svg xmlns="http://www.w3.org/2000/svg" xmlns:xlink="http://www.w3.org/1999/xlink" width="325.898" height="287.507" viewBox="0 0 325.898 287.507">
  <defs>
    <linearGradient id="linear-gradient" x1="0.591" y1="-0.214" x2="0.5" y2="1" gradientUnits="objectBoundingBox">
      <stop offset="0" stop-color="#ec98f6"/>
      <stop offset="1" stop-color="#000034"/>
    </linearGradient>
    <linearGradient id="linear-gradient-2" x1="0.5" x2="0.5" y2="1" gradientUnits="objectBoundingBox">
      <stop offset="0" stop-color="#000034"/>
      <stop offset="1" stop-color="#5b1baf"/>
    </linearGradient>
    <linearGradient id="linear-gradient-3" x1="0.5" x2="0.5" y2="1" gradientUnits="objectBoundingBox">
      <stop offset="0" stop-color="#b598db"/>
      <stop offset="0.707" stop-color="#c8b2e4"/>
      <stop offset="1" stop-color="#fff"/>
    </linearGradient>
    <linearGradient id="linear-gradient-4" x1="0.5" x2="0.5" y2="1" gradientUnits="objectBoundingBox">
      <stop offset="0" stop-color="#cebee2"/>
      <stop offset="1" stop-color="#faf5fb"/>
    </linearGradient>
  </defs>
  <g id="logo-c" transform="translate(-885 856)">
    <path id="Polygon_3" data-name="Polygon 3" d="M157.645,50.233c13.126-22.461,45.585-22.461,58.71,0L344.107,268.846C357.352,291.512,341,320,314.752,320H59.249c-26.253,0-42.6-28.488-29.355-51.154Z" transform="translate(859.805 -889.387)" fill="url(#linear-gradient)"/>
    <path id="Exclusion_7" data-name="Exclusion 7" d="M91.63,168.142c-14.344,0-37.512-12.654-54.427-21.894-8.313-4.541-14.879-8.127-18.316-9.106A35.085,35.085,0,0,0,9.28,135.8,29.948,29.948,0,0,0,0,137.143l45.815-78.5c.026-.036,2.69-3.667,7.216-9.008a234.69,234.69,0,0,1,18.958-19.9,147.486,147.486,0,0,1,26.665-20.1C109.408,3.5,119.615.265,128.992.016c.4-.01.808-.016,1.208-.016,9.285,0,19.334,2.832,29.869,8.417A136.577,136.577,0,0,1,186.1,26.933a212.557,212.557,0,0,1,18.39,18.516c4.4,5,6.947,8.383,6.972,8.417l39.883,68.092a2.477,2.477,0,0,0-1.3-.268c-1.745,0-5.741,1.042-12.9,8.024-4.223,4.116-7.763,9.8-11.186,15.293-5.156,8.276-10.026,16.094-16.7,17.967a17.8,17.8,0,0,1-4.8.687,19.079,19.079,0,0,1-9.184-2.54,70.2,70.2,0,0,1-8.617-5.809c-6.638-4.949-14.162-10.558-24.9-10.974-.384-.015-.777-.022-1.167-.022-11.246,0-23.591,6.191-35.53,12.178C119.447,159.309,91.813,168.142,91.63,168.142Z" transform="translate(916.848 -804.212)" fill="#000034"/>
    <path id="Path_56" data-name="Path 56" d="M3123.83,1163.12l-264.567-.686s-23.583-5.629-27.828-22.984,6.131-34.71,6.131-34.71l27.356-46.437s6.7-1.907,19.538,1.979,42.991,28.847,68.38,29.613,32.152-22.517,59.921-23.549,33.959,14.692,51.155,19.421c14.311,3.935,29.471-41.006,46.93-41.006l36.842,61.134s13.147,12.123,6.979,35.215S3123.83,1163.12,3123.83,1163.12Z" transform="translate(-1945.415 -1731.621)" fill="url(#linear-gradient-2)"/>
    <g id="Group_8" data-name="Group 8" transform="translate(-1926.195 -1861.387)">
      <path id="Path_2" data-name="Path 2" d="M2987.27,1204.77s-3.416,37.362,10.034,60.847,29.249,26.047,29.249,26.047H2917.67s16.012-2.989,29.249-26.047,11.956-60.847,11.956-60.847Z" fill="url(#linear-gradient-3)"/>
      <path id="Path_3" data-name="Path 3" d="M2965.57,1204.77s-2.351,37.362,6.906,60.847,20.13,26.047,20.13,26.047H2917.67s11.021-2.989,20.131-26.047,8.229-60.847,8.229-60.847Z" transform="translate(17.372)" fill="url(#linear-gradient-4)"/>
      <path id="Exclusion_1" data-name="Exclusion 1" d="M52.734,206.9H29.606a61.019,61.019,0,0,0,4.938-12.308,94.877,94.877,0,0,0,3.48-33.332,135.156,135.156,0,0,0-7.316-34.86,105.381,105.381,0,0,0-5.858-13.834L9,140.308,0,99.362,15.82,82.709a75.929,75.929,0,0,1-3.088-13.34,76.894,76.894,0,0,1-.776-13.533,58.816,58.816,0,0,1,2.476-15.315,71.3,71.3,0,0,1,6.9-15.054,120.508,120.508,0,0,1,8.955-12.96A137.2,137.2,0,0,1,41.355,0l.01.007A116.286,116.286,0,0,1,52.292,11.4a106.328,106.328,0,0,1,8.939,12.2,67.967,67.967,0,0,1,7.046,14.7,63.276,63.276,0,0,1,2.839,15.662,89.953,89.953,0,0,1-.315,14.3,92.5,92.5,0,0,1-2.524,14.45L84.1,98.252l-9.159,42.056L59.673,112.564c-.024.052-2.983,6.422-6.067,15.5-2.858,8.417-6.437,21.007-7.255,33.19a118.964,118.964,0,0,0,2.6,31.663,116.594,116.594,0,0,0,3.786,13.975ZM41.648,52.287a12.5,12.5,0,1,0,12.5,12.5,12.5,12.5,0,0,0-12.5-12.5Z" transform="translate(2930.351 1085.213)" fill="#fff"/>
    </g>
  </g>
</svg>
