<svg xmlns="http://www.w3.org/2000/svg" xmlns:xlink="http://www.w3.org/1999/xlink" width="331.478" height="390.585" viewBox="0 0 331.478 390.585">
  <defs>
    <linearGradient id="linear-gradient" x1="0.591" y1="-0.214" x2="0.5" y2="1" gradientUnits="objectBoundingBox">
      <stop offset="0" stop-color="#ec98f6"/>
      <stop offset="1" stop-color="#000034"/>
    </linearGradient>
    <linearGradient id="linear-gradient-2" x1="0.5" x2="0.5" y2="1" gradientUnits="objectBoundingBox">
      <stop offset="0" stop-color="#000034"/>
      <stop offset="1" stop-color="#5b1baf"/>
    </linearGradient>
    <linearGradient id="linear-gradient-3" x1="0.5" x2="0.5" y2="1" gradientUnits="objectBoundingBox">
      <stop offset="0" stop-color="#b598db"/>
      <stop offset="0.707" stop-color="#c8b2e4"/>
      <stop offset="1" stop-color="#fff"/>
    </linearGradient>
    <linearGradient id="linear-gradient-4" x1="0.5" x2="0.5" y2="1" gradientUnits="objectBoundingBox">
      <stop offset="0" stop-color="#cebee2"/>
      <stop offset="1" stop-color="#faf5fb"/>
    </linearGradient>
    <linearGradient id="linear-gradient-5" x1="0.5" x2="0.5" y2="1" gradientUnits="objectBoundingBox">
      <stop offset="0" stop-color="#d481f3"/>
      <stop offset="1" stop-color="#b95ce1"/>
    </linearGradient>
  </defs>
  <g id="logo-back-translate" transform="translate(-4751.198 -1018.388)">
    <path id="Exclusion_6" data-name="Exclusion 6" d="M314.752,320H59.249a34.571,34.571,0,0,1-9.342-1.268,33.249,33.249,0,0,1-8.183-3.537A34.4,34.4,0,0,1,25.2,286.4a33.249,33.249,0,0,1,1.075-8.85,34.572,34.572,0,0,1,3.618-8.706l27.2-46.545-.05.017,45.814-78.5.009-.012c.153-.208.321-.431.435-.583L57.093,222.3a30.334,30.334,0,0,1,9.23-1.323,35.074,35.074,0,0,1,9.607,1.341c3.437.978,10,4.565,18.316,9.106,16.916,9.24,40.083,21.893,54.428,21.893.2,0,.377,0,.539-.006,4.546-.1,9.761-1.331,15.945-3.754,5.518-2.16,11.317-5.068,16.925-7.881l.018-.009c11.939-5.987,24.284-12.178,35.529-12.178.377,0,.77.008,1.167.023,10.743.417,18.267,6.026,24.9,10.974l.021.016a70.092,70.092,0,0,0,8.6,5.793,19.088,19.088,0,0,0,9.184,2.54,17.805,17.805,0,0,0,4.805-.687c6.669-1.873,11.539-9.69,16.694-17.966l.008-.012c3.421-5.491,6.959-11.169,11.179-15.282,7.164-6.982,11.16-8.024,12.9-8.024a3.485,3.485,0,0,1,.85.1l-40.455-69.228c.611.772.954,1.223,1.016,1.306l39.885,68.094a1.621,1.621,0,0,0-.446-.172l36.164,61.884a34.573,34.573,0,0,1,3.618,8.706,33.251,33.251,0,0,1,1.075,8.85A34.4,34.4,0,0,1,332.276,315.2a33.251,33.251,0,0,1-8.183,3.537A34.571,34.571,0,0,1,314.752,320ZM278.534,208.892H265.041a5,5,0,0,1-3.056-1.626,2.776,2.776,0,0,1-.352-2.326,3.429,3.429,0,0,1,3.626-2.689,5.1,5.1,0,0,1,.942.083h.007v0a8.658,8.658,0,0,1,.824-2.325,4.359,4.359,0,0,1,3.374-2.526c.156-.014.309-.021.454-.021a4.029,4.029,0,0,1,3.817,2.965,8.092,8.092,0,0,1,2.169-.307,4.217,4.217,0,0,1,4.027,2.219,4.5,4.5,0,0,1-.541,4.535,9.426,9.426,0,0,1-1.8,2.021h0Zm-174.577-5.075H89.815a5.191,5.191,0,0,1-3.2-1.7,2.912,2.912,0,0,1-.368-2.438,3.593,3.593,0,0,1,3.8-2.819,5.311,5.311,0,0,1,.989.088h.007v0a9.076,9.076,0,0,1,.845-2.419,4.574,4.574,0,0,1,3.556-2.667c.16-.014.32-.022.477-.022a3.9,3.9,0,0,1,3.19,1.542,4.873,4.873,0,0,1,.809,1.565l.005,0a8.444,8.444,0,0,1,2.267-.32,4.423,4.423,0,0,1,4.223,2.326,4.718,4.718,0,0,1-.568,4.753,9.923,9.923,0,0,1-1.886,2.118Zm149.1-10H237.385a5.822,5.822,0,0,1-3.551-1.888,3.226,3.226,0,0,1-.409-2.7,3.983,3.983,0,0,1,4.211-3.124,5.977,5.977,0,0,1,1.1.1l.009,0a10.127,10.127,0,0,1,.937-2.686,5.068,5.068,0,0,1,3.942-2.956c.178-.016.356-.024.529-.024a4.7,4.7,0,0,1,4.434,3.444l.005,0a9.415,9.415,0,0,1,2.512-.354,4.9,4.9,0,0,1,4.68,2.579,5.227,5.227,0,0,1-.629,5.269,10.9,10.9,0,0,1-2.09,2.348Zm-117.4-3.7H118.8c-.026,0-2.64-.344-3.818-2.031a3.47,3.47,0,0,1-.439-2.906,4.283,4.283,0,0,1,4.529-3.361,6.433,6.433,0,0,1,1.179.1h.007a10.762,10.762,0,0,1,1.009-2.887,5.45,5.45,0,0,1,4.238-3.18c.194-.017.385-.026.567-.026a4.805,4.805,0,0,1,4.508,3,5.938,5.938,0,0,1,.766.094,10.836,10.836,0,0,1,1.009-2.887,5.45,5.45,0,0,1,4.238-3.18c.195-.017.386-.026.569-.026a4.65,4.65,0,0,1,3.82,1.852,5.718,5.718,0,0,1,.948,1.849l.033-.01a10.368,10.368,0,0,1,2.676-.37,5.271,5.271,0,0,1,5.033,2.772,5.619,5.619,0,0,1-.677,5.666,11.844,11.844,0,0,1-2.248,2.525H138.2a11.92,11.92,0,0,1-2.538,3Zm129.245-19.3H243.031c-.14-.018-3.447-.476-4.955-2.636a4.5,4.5,0,0,1-.571-3.771c.9-3.794,4.071-4.361,5.878-4.361a8.242,8.242,0,0,1,1.53.136l.009,0v0a14.1,14.1,0,0,1,1.308-3.743,7.069,7.069,0,0,1,5.5-4.126c.251-.023.5-.034.737-.034a6.036,6.036,0,0,1,4.957,2.4,7.369,7.369,0,0,1,1.231,2.4,12.98,12.98,0,0,1,3.515-.5c2.157,0,5.041.624,6.53,3.6,1.4,2.806.3,5.547-.878,7.352a15.352,15.352,0,0,1-2.917,3.278h0Zm-116.945-11.7H120.542c-.043-.005-4.3-.567-6.21-3.3a5.649,5.649,0,0,1-.714-4.728c1.132-4.755,5.1-5.465,7.364-5.465a10.358,10.358,0,0,1,1.927.172,17.717,17.717,0,0,1,1.644-4.7c1.148-2.179,3.275-4.845,6.892-5.171.315-.028.626-.042.925-.042a7.564,7.564,0,0,1,6.213,3.012,9.305,9.305,0,0,1,1.542,3.011s0,0,.011,0a16.527,16.527,0,0,1,4.393-.619c2.7,0,6.321.782,8.186,4.509,1.759,3.517.373,6.953-1.1,9.215a19.244,19.244,0,0,1-3.656,4.107h0Zm91.785-9.3H218.637c-.033,0-3.315-.445-4.781-2.542a4.35,4.35,0,0,1-.55-3.638c.872-3.66,3.927-4.207,5.67-4.207a8.179,8.179,0,0,1,1.477.131l.009,0a13.7,13.7,0,0,1,1.262-3.615,6.825,6.825,0,0,1,5.306-3.98c.24-.021.48-.032.712-.032a5.827,5.827,0,0,1,4.783,2.318,7.232,7.232,0,0,1,1.187,2.318,12.521,12.521,0,0,1,3.39-.479,6.6,6.6,0,0,1,6.3,3.47c1.354,2.707.286,5.351-.848,7.093a15.091,15.091,0,0,1-2.813,3.161Zm-136.433-6.6h0l54.335-92.979a34.556,34.556,0,0,1,5.753-7.37A33.276,33.276,0,0,1,170.51,37.6a34.391,34.391,0,0,1,32.98,0,33.276,33.276,0,0,1,7.112,5.264,34.556,34.556,0,0,1,5.753,7.37l51.133,87.5c-1.2-1.517-3.207-3.982-5.955-7.108a212.389,212.389,0,0,0-18.392-18.517,136.563,136.563,0,0,0-26.024-18.517c-10.536-5.585-20.586-8.417-29.869-8.417-.4,0-.813.005-1.212.016-9.376.248-19.583,3.485-30.339,9.621a147.508,147.508,0,0,0-26.665,20.1,234.592,234.592,0,0,0-18.958,19.9C106.587,138.928,104.183,142.059,103.312,143.214Z" transform="translate(4726 985)" fill="url(#linear-gradient)"/>
    <path id="Path_38" data-name="Path 38" d="M3128.854,1163.119l-269.094-.686s-23.987-5.629-28.3-22.984,6.236-34.71,6.236-34.71l27.825-46.437s6.814-1.907,19.872,1.979,43.727,28.847,69.551,29.613,32.7-22.517,60.947-23.549,34.541,14.692,52.03,19.421c14.556,3.935,29.976-41.006,47.733-41.006l37.473,61.134s13.372,12.123,7.1,35.215S3128.854,1163.119,3128.854,1163.119Z" transform="translate(1920.78 142.766)" fill="url(#linear-gradient-2)"/>
    <g id="Group_6" data-name="Group 6" transform="translate(1940 13)">
      <path id="Path_2" data-name="Path 2" d="M2987.271,1204.772s-3.416,37.362,10.034,60.847,29.249,26.047,29.249,26.047H2917.67s16.012-2.989,29.249-26.047,11.956-60.847,11.956-60.847Z" fill="url(#linear-gradient-3)"/>
      <path id="Path_3" data-name="Path 3" d="M2965.572,1204.772s-2.351,37.362,6.906,60.847,20.13,26.047,20.13,26.047H2917.67s11.021-2.989,20.131-26.047,8.229-60.847,8.229-60.847Z" transform="translate(17.372)" fill="url(#linear-gradient-4)"/>
      <path id="Exclusion_1" data-name="Exclusion 1" d="M52.734,206.9H29.606a61.019,61.019,0,0,0,4.938-12.308,94.877,94.877,0,0,0,3.48-33.332A135.155,135.155,0,0,0,30.708,126.4a105.382,105.382,0,0,0-5.858-13.834L9,140.308,0,99.362,15.82,82.709a75.929,75.929,0,0,1-3.088-13.34,76.894,76.894,0,0,1-.776-13.533,58.816,58.816,0,0,1,2.476-15.315,71.3,71.3,0,0,1,6.9-15.054,120.508,120.508,0,0,1,8.955-12.96A137.194,137.194,0,0,1,41.355,0l.01.007A116.287,116.287,0,0,1,52.292,11.4a106.328,106.328,0,0,1,8.939,12.2A67.967,67.967,0,0,1,68.277,38.3a63.276,63.276,0,0,1,2.839,15.662,89.955,89.955,0,0,1-.315,14.3,92.5,92.5,0,0,1-2.524,14.45L84.1,98.252l-9.159,42.056L59.673,112.564c-.024.052-2.983,6.422-6.067,15.5-2.858,8.417-6.437,21.007-7.255,33.19a118.964,118.964,0,0,0,2.6,31.663,116.593,116.593,0,0,0,3.786,13.975ZM41.648,52.287a12.5,12.5,0,1,0,12.5,12.5A12.514,12.514,0,0,0,41.648,52.287Z" transform="translate(2930.351 1085.213)" fill="#fff"/>
    </g>
    <g id="Group_7" data-name="Group 7" transform="translate(513 -906)">
      <path id="Path_14" data-name="Path 14" d="M4262.067,2301.917s12.409,9.344,19.959,7.625,18.289-8.4,14.714-19.76-29.656-8.117-34.331-23.15,8.822-23.947,17.307-24.508c11.632-.772,21.464,7.691,21.464,7.691l-3.456,3.664s-9.79-6.95-17.265-6.277-17.54,9.074-12.108,18.8,33.875,10.188,34.235,23.779c.379,14.275-8.665,22.449-19.834,24.859s-24.718-9.058-24.718-9.058Z" fill="#fff"/>
      <path id="Path_15" data-name="Path 15" d="M4318,2243.261h23.877s19.83,2.218,19.838,20.708-21.08,21.486-21.08,21.486h-16.823v28.2H4318v-32.74h21.737s14.054-.224,15.549-15.847-14.427-17.343-14.427-17.343l-22.859.706Z" fill="#fff"/>
      <path id="Exclusion_2" data-name="Exclusion 2" d="M63,70.773H56.9l-8.6-21.923H14.711L5.828,70.771H0L29.42,0h5.274L63,70.772ZM31.5,6.661h0L16.376,44.685H46.351L31.5,6.661Z" transform="translate(4359.197 2242.88)" fill="#fff"/>
      <path id="Path_18" data-name="Path 18" d="M4481.4,2254.752s-2.3-5.53-13.954-7.153c-12.2-1.7-33.156,1.335-34.351,27.754-1.285,28.389,18.2,35.675,32.408,34.417a26.2,26.2,0,0,0,16.651-8.05l3.886,3.331a38.621,38.621,0,0,1-22.479,9.715c-15.514,1.139-36.311-7.187-36.914-34.416-.64-28.886,19.732-39.223,36.914-38.579,12.189.456,21.278,9.617,21.278,9.617Z" fill="#fff"/>
      <path id="Path_19" data-name="Path 19" d="M4542.624,2243.228h-41.714v37.116h36.459v-4.6h-30.875v-28.412h36.13Z" fill="#fff"/>
      <path id="Path_20" data-name="Path 20" d="M4542.624,2308.592H4501.4v5.255h41.222Z" fill="#fff"/>
    </g>
    <path id="Path_39" data-name="Path 39" d="M2907.037,1132.118h27.2s8.1-6.514,4.718-13.322-12.49-3.886-12.49-3.886-1.663-6.613-8.612-5.982-8.464,9.867-8.464,9.867-7.58-1.656-9.222,5.292S2907.037,1132.118,2907.037,1132.118Z" transform="translate(1940 12)" fill="url(#linear-gradient-5)"/>
    <path id="Path_40" data-name="Path 40" d="M2904.311,1123.171h16.724s4.979-4.005,2.9-8.191-7.679-2.389-7.679-2.389a4.964,4.964,0,0,0-5.295-3.678c-4.272.388-5.2,6.067-5.2,6.067s-4.661-1.018-5.67,3.254S2904.311,1123.171,2904.311,1123.171Z" transform="translate(1952 48.948)" fill="url(#linear-gradient-5)"/>
    <path id="Path_41" data-name="Path 41" d="M2904.311,1123.171h16.724s4.979-4.005,2.9-8.191-7.679-2.389-7.679-2.389a4.964,4.964,0,0,0-5.295-3.678c-4.272.388-5.2,6.067-5.2,6.067s-4.661-1.018-5.67,3.254S2904.311,1123.171,2904.311,1123.171Z" transform="translate(1941 51.948)" fill="url(#linear-gradient-5)"/>
    <path id="Path_42" data-name="Path 42" d="M2903.609,1120.87h14.03s4.177-3.36,2.434-6.872-6.442-2-6.442-2a4.164,4.164,0,0,0-4.442-3.085c-3.584.326-4.366,5.09-4.366,5.09s-3.91-.854-4.757,2.73S2903.609,1120.87,2903.609,1120.87Z" transform="translate(1912.944 67.948)" fill="url(#linear-gradient-5)"/>
    <path id="Path_43" data-name="Path 43" d="M2905.407,1126.769h20.936s6.233-5.014,3.632-10.255-9.614-2.991-9.614-2.991-1.281-5.09-6.628-4.6-6.516,7.6-6.516,7.6-5.834-1.274-7.1,4.074S2905.407,1126.769,2905.407,1126.769Z" transform="translate(2038.944 8.049)" fill="url(#linear-gradient-5)"/>
    <path id="Path_44" data-name="Path 44" d="M2905.606,1127.422h21.7s6.461-5.2,3.765-10.629-9.965-3.1-9.965-3.1-1.327-5.276-6.87-4.772-6.754,7.873-6.754,7.873-6.047-1.321-7.358,4.223S2905.606,1127.422,2905.606,1127.422Z" transform="translate(2062.944 28.395)" fill="url(#linear-gradient-5)"/>
    <path id="Path_45" data-name="Path 45" d="M2904.006,1122.17h15.552s4.63-3.724,2.7-7.617-7.141-2.222-7.141-2.222a4.616,4.616,0,0,0-4.924-3.42c-3.973.361-4.84,5.642-4.84,5.642s-4.334-.947-5.273,3.026S2904.006,1122.17,2904.006,1122.17Z" transform="translate(2058.944 56.648)" fill="url(#linear-gradient-5)"/>
    <path id="Path_46" data-name="Path 46" d="M2903.442,1120.319h13.385s3.985-3.206,2.323-6.556-6.146-1.912-6.146-1.912a3.973,3.973,0,0,0-4.238-2.944c-3.42.311-4.166,4.856-4.166,4.856s-3.73-.815-4.539,2.6S2903.442,1120.319,2903.442,1120.319Z" transform="translate(2086.944 73.573)" fill="url(#linear-gradient-5)"/>
  </g>
</svg>
