<svg xmlns="http://www.w3.org/2000/svg" xmlns:xlink="http://www.w3.org/1999/xlink" width="374" height="423.973" viewBox="0 0 374 423.973">
  <defs>
    <linearGradient id="linear-gradient" x1="0.591" y1="-0.214" x2="0.5" y2="1" gradientUnits="objectBoundingBox">
      <stop offset="0" stop-color="#ec98f6"/>
      <stop offset="1" stop-color="#000034"/>
    </linearGradient>
    <linearGradient id="linear-gradient-2" x1="0.5" x2="0.5" y2="1" gradientUnits="objectBoundingBox">
      <stop offset="0" stop-color="#000034"/>
      <stop offset="1" stop-color="#5b1baf"/>
    </linearGradient>
    <linearGradient id="linear-gradient-3" x1="0.5" x2="0.5" y2="1" gradientUnits="objectBoundingBox">
      <stop offset="0" stop-color="#b598db"/>
      <stop offset="0.707" stop-color="#c8b2e4"/>
      <stop offset="1" stop-color="#fff"/>
    </linearGradient>
    <linearGradient id="linear-gradient-4" x1="0.5" x2="0.5" y2="1" gradientUnits="objectBoundingBox">
      <stop offset="0" stop-color="#cebee2"/>
      <stop offset="1" stop-color="#faf5fb"/>
    </linearGradient>
    <linearGradient id="linear-gradient-5" x1="0.5" x2="0.5" y2="1" gradientUnits="objectBoundingBox">
      <stop offset="0" stop-color="#d481f3"/>
      <stop offset="1" stop-color="#b95ce1"/>
    </linearGradient>
  </defs>
  <g id="logo-back-color" transform="translate(-3747 -196)">
    <g id="Group_10" data-name="Group 10">
      <path id="Polygon_3" data-name="Polygon 3" d="M157.645,50.233c13.126-22.461,45.585-22.461,58.71,0L344.107,268.846C357.352,291.512,341,320,314.752,320H59.249c-26.253,0-42.6-28.488-29.355-51.154Z" transform="translate(3747 196)" fill="url(#linear-gradient)"/>
      <path id="Exclusion_7" data-name="Exclusion 7" d="M91.63,168.142c-14.344,0-37.512-12.654-54.427-21.894-8.313-4.541-14.879-8.127-18.316-9.106A35.085,35.085,0,0,0,9.28,135.8,29.948,29.948,0,0,0,0,137.143l45.815-78.5c.026-.036,2.69-3.667,7.216-9.008a234.689,234.689,0,0,1,18.958-19.9,147.485,147.485,0,0,1,26.665-20.1C109.408,3.5,119.615.265,128.992.016,129.393.006,129.8,0,130.2,0c9.285,0,19.334,2.832,29.869,8.417A136.577,136.577,0,0,1,186.1,26.933,212.559,212.559,0,0,1,204.49,45.449c4.395,5,6.947,8.383,6.972,8.417l39.883,68.092a2.477,2.477,0,0,0-1.3-.268c-1.745,0-5.741,1.042-12.9,8.024-4.223,4.116-7.763,9.8-11.186,15.293-5.156,8.276-10.026,16.094-16.7,17.967a17.8,17.8,0,0,1-4.8.687,19.079,19.079,0,0,1-9.184-2.54,70.2,70.2,0,0,1-8.617-5.809c-6.638-4.949-14.162-10.558-24.9-10.974-.384-.015-.777-.022-1.167-.022-11.246,0-23.591,6.191-35.53,12.178-5.614,2.815-11.419,5.726-16.942,7.89-6.182,2.422-11.4,3.65-15.945,3.754C91.995,168.14,91.813,168.142,91.63,168.142Zm116.585-51.067a3.429,3.429,0,0,0-3.626,2.689,2.779,2.779,0,0,0,.351,2.326A4.956,4.956,0,0,0,208,123.717H221.49a9.476,9.476,0,0,0,1.8-2.022,4.5,4.5,0,0,0,.542-4.535,4.218,4.218,0,0,0-4.027-2.219,7.969,7.969,0,0,0-2.168.307,4.023,4.023,0,0,0-3.817-2.965c-.148,0-.3.007-.455.021-3.407.307-4.191,4.81-4.2,4.855A4.988,4.988,0,0,0,208.215,117.075ZM33,111.681a3.593,3.593,0,0,0-3.8,2.819,2.913,2.913,0,0,0,.369,2.438,5.194,5.194,0,0,0,3.2,1.7H46.913a9.956,9.956,0,0,0,1.886-2.119,4.713,4.713,0,0,0,.568-4.753,4.422,4.422,0,0,0-4.223-2.326,8.4,8.4,0,0,0-2.272.322,4.221,4.221,0,0,0-4-3.107c-.155,0-.316.007-.477.022a4.571,4.571,0,0,0-3.556,2.667,9.085,9.085,0,0,0-.845,2.423,5.224,5.224,0,0,0-1-.089Zm147.595-10.755a3.983,3.983,0,0,0-4.212,3.124,3.229,3.229,0,0,0,.409,2.7,5.763,5.763,0,0,0,3.551,1.889h15.676a11.042,11.042,0,0,0,2.09-2.349,5.225,5.225,0,0,0,.63-5.268,4.9,4.9,0,0,0-4.68-2.579,9.236,9.236,0,0,0-2.518.357,4.7,4.7,0,0,0-4.434-3.444c-.172,0-.35.008-.53.024a5.067,5.067,0,0,0-3.942,2.956,10.075,10.075,0,0,0-.937,2.686,5.817,5.817,0,0,0-1.1-.1ZM62.031,96.645a4.284,4.284,0,0,0-4.529,3.36,3.473,3.473,0,0,0,.439,2.906c1.174,1.68,3.792,2.028,3.818,2.031H78.617a11.922,11.922,0,0,0,2.537-3H89.7a11.927,11.927,0,0,0,2.248-2.526,5.62,5.62,0,0,0,.677-5.666A5.271,5.271,0,0,0,87.6,90.979a10,10,0,0,0-2.709.384,5.717,5.717,0,0,0-.948-1.852,4.652,4.652,0,0,0-3.82-1.852c-.185,0-.377.009-.569.026a5.451,5.451,0,0,0-4.238,3.179A10.818,10.818,0,0,0,74.3,93.751a5.822,5.822,0,0,0-.767-.094,4.8,4.8,0,0,0-4.507-3c-.184,0-.375.009-.568.026a5.451,5.451,0,0,0-4.238,3.179,10.818,10.818,0,0,0-1.008,2.888A6.277,6.277,0,0,0,62.031,96.645Zm124.308-21.77c-1.807,0-4.973.566-5.878,4.36a4.508,4.508,0,0,0,.571,3.771c1.523,2.179,4.921,2.632,4.955,2.636h21.875a15.645,15.645,0,0,0,2.917-3.278c1.176-1.805,2.282-4.546.878-7.352-1.488-2.973-4.373-3.6-6.53-3.6a12.937,12.937,0,0,0-3.514.5,7.335,7.335,0,0,0-1.231-2.4,6.037,6.037,0,0,0-4.957-2.4c-.24,0-.488.011-.738.034a7.071,7.071,0,0,0-5.5,4.125,14,14,0,0,0-1.308,3.747A8.018,8.018,0,0,0,186.339,74.875ZM63.94,60.447h0c-2.264,0-6.232.71-7.365,5.465a5.649,5.649,0,0,0,.714,4.727c1.908,2.731,6.167,3.3,6.21,3.3H90.917a19.294,19.294,0,0,0,3.656-4.108c1.473-2.262,2.861-5.7,1.1-9.215-1.865-3.727-5.481-4.509-8.186-4.509a16.238,16.238,0,0,0-4.4.624,9.259,9.259,0,0,0-1.542-3.012,7.566,7.566,0,0,0-6.213-3.012c-.3,0-.612.014-.925.043-3.618.326-5.745,2.991-6.893,5.17a17.59,17.59,0,0,0-1.64,4.7,10.177,10.177,0,0,0-1.93-.173Zm97.994-6.194h0c-1.743,0-4.8.547-5.67,4.207a4.347,4.347,0,0,0,.55,3.638c1.47,2.1,4.748,2.539,4.781,2.543h21.1a15.046,15.046,0,0,0,2.814-3.162c1.134-1.741,2.2-4.385.848-7.093a6.6,6.6,0,0,0-6.3-3.471,12.5,12.5,0,0,0-3.39.48,7.19,7.19,0,0,0-1.187-2.319,5.825,5.825,0,0,0-4.783-2.319c-.232,0-.471.011-.712.033a6.822,6.822,0,0,0-5.306,3.98,13.548,13.548,0,0,0-1.262,3.615,7.939,7.939,0,0,0-1.485-.133Z" transform="translate(3804.043 281.175)" fill="#000034"/>
      <path id="Path_56" data-name="Path 56" d="M3123.833,1163.119l-264.567-.686s-23.583-5.629-27.828-22.984,6.131-34.71,6.131-34.71l27.356-46.437s6.7-1.907,19.538,1.979,42.991,28.847,68.38,29.613,32.152-22.517,59.921-23.549,33.959,14.692,51.155,19.421c14.311,3.935,29.471-41.006,46.93-41.006l36.842,61.134s13.147,12.123,6.979,35.215S3123.833,1163.119,3123.833,1163.119Z" transform="translate(941.78 -646.234)" fill="url(#linear-gradient-2)"/>
      <g id="Group_8" data-name="Group 8" transform="translate(961 -776)">
        <path id="Path_2" data-name="Path 2" d="M2987.271,1204.772s-3.416,37.362,10.034,60.847,29.249,26.047,29.249,26.047H2917.67s16.012-2.989,29.249-26.047,11.956-60.847,11.956-60.847Z" fill="url(#linear-gradient-3)"/>
        <path id="Path_3" data-name="Path 3" d="M2965.572,1204.772s-2.351,37.362,6.906,60.847,20.13,26.047,20.13,26.047H2917.67s11.021-2.989,20.131-26.047,8.229-60.847,8.229-60.847Z" transform="translate(17.372)" fill="url(#linear-gradient-4)"/>
        <path id="Exclusion_1" data-name="Exclusion 1" d="M52.734,206.9H29.606a61.019,61.019,0,0,0,4.938-12.308,94.877,94.877,0,0,0,3.48-33.332A135.155,135.155,0,0,0,30.708,126.4a105.382,105.382,0,0,0-5.858-13.834L9,140.308,0,99.362,15.82,82.709a75.929,75.929,0,0,1-3.088-13.34,76.894,76.894,0,0,1-.776-13.533,58.816,58.816,0,0,1,2.476-15.315,71.3,71.3,0,0,1,6.9-15.054,120.508,120.508,0,0,1,8.955-12.96A137.194,137.194,0,0,1,41.355,0l.01.007A116.287,116.287,0,0,1,52.292,11.4a106.328,106.328,0,0,1,8.939,12.2A67.967,67.967,0,0,1,68.277,38.3a63.276,63.276,0,0,1,2.839,15.662,89.955,89.955,0,0,1-.315,14.3,92.5,92.5,0,0,1-2.524,14.45L84.1,98.252l-9.159,42.056L59.673,112.564c-.024.052-2.983,6.422-6.067,15.5-2.858,8.417-6.437,21.007-7.255,33.19a118.964,118.964,0,0,0,2.6,31.663,116.593,116.593,0,0,0,3.786,13.975ZM41.648,52.287a12.5,12.5,0,1,0,12.5,12.5A12.514,12.514,0,0,0,41.648,52.287Z" transform="translate(2930.351 1085.213)" fill="#fff"/>
      </g>
      <g id="Group_9" data-name="Group 9" transform="translate(-466 -1695)">
        <path id="Path_14" data-name="Path 14" d="M4262.067,2301.917s12.409,9.344,19.959,7.625,18.289-8.4,14.714-19.76-29.656-8.117-34.331-23.15,8.822-23.947,17.307-24.508c11.632-.772,21.464,7.691,21.464,7.691l-3.456,3.664s-9.79-6.95-17.265-6.277-17.54,9.074-12.108,18.8,33.875,10.188,34.235,23.779c.379,14.275-8.665,22.449-19.834,24.859s-24.718-9.058-24.718-9.058Z" fill="#fff"/>
        <path id="Path_15" data-name="Path 15" d="M4318,2243.261h23.877s19.83,2.218,19.838,20.708-21.08,21.486-21.08,21.486h-16.823v28.2H4318v-32.74h21.737s14.054-.224,15.549-15.847-14.427-17.343-14.427-17.343l-22.859.706Z" fill="#fff"/>
        <path id="Exclusion_2" data-name="Exclusion 2" d="M63,70.773H56.9l-8.6-21.923H14.711L5.828,70.771H0L29.42,0h5.274L63,70.772ZM31.5,6.661h0L16.376,44.685H46.351L31.5,6.661Z" transform="translate(4359.197 2242.88)" fill="#fff"/>
        <path id="Path_18" data-name="Path 18" d="M4481.4,2254.752s-2.3-5.53-13.954-7.153c-12.2-1.7-33.156,1.335-34.351,27.754-1.285,28.389,18.2,35.675,32.408,34.417a26.2,26.2,0,0,0,16.651-8.05l3.886,3.331a38.621,38.621,0,0,1-22.479,9.715c-15.514,1.139-36.311-7.187-36.914-34.416-.64-28.886,19.732-39.223,36.914-38.579,12.189.456,21.278,9.617,21.278,9.617Z" fill="#fff"/>
        <path id="Path_19" data-name="Path 19" d="M4542.624,2243.228h-41.714v37.116h36.459v-4.6h-30.875v-28.412h36.13Z" fill="#fff"/>
        <path id="Path_20" data-name="Path 20" d="M4542.624,2308.592H4501.4v5.255h41.222Z" fill="#fff"/>
      </g>
      <path id="Path_57" data-name="Path 57" d="M2907.037,1132.118h27.2s8.1-6.514,4.718-13.322-12.49-3.886-12.49-3.886-1.663-6.613-8.612-5.982-8.464,9.867-8.464,9.867-7.58-1.656-9.222,5.292S2907.037,1132.118,2907.037,1132.118Z" transform="translate(961 -777)" fill="url(#linear-gradient-5)"/>
      <path id="Path_58" data-name="Path 58" d="M2904.311,1123.171h16.724s4.979-4.005,2.9-8.191-7.679-2.389-7.679-2.389a4.964,4.964,0,0,0-5.295-3.678c-4.272.388-5.2,6.067-5.2,6.067s-4.661-1.018-5.67,3.254S2904.311,1123.171,2904.311,1123.171Z" transform="translate(973 -740.052)" fill="url(#linear-gradient-5)"/>
      <path id="Path_59" data-name="Path 59" d="M2904.311,1123.171h16.724s4.979-4.005,2.9-8.191-7.679-2.389-7.679-2.389a4.964,4.964,0,0,0-5.295-3.678c-4.272.388-5.2,6.067-5.2,6.067s-4.661-1.018-5.67,3.254S2904.311,1123.171,2904.311,1123.171Z" transform="translate(962 -737.052)" fill="url(#linear-gradient-5)"/>
      <path id="Path_60" data-name="Path 60" d="M2903.609,1120.87h14.03s4.177-3.36,2.434-6.872-6.442-2-6.442-2a4.164,4.164,0,0,0-4.442-3.085c-3.584.326-4.366,5.09-4.366,5.09s-3.91-.854-4.757,2.73S2903.609,1120.87,2903.609,1120.87Z" transform="translate(933.944 -721.052)" fill="url(#linear-gradient-5)"/>
      <path id="Path_61" data-name="Path 61" d="M2905.407,1126.769h20.936s6.233-5.014,3.632-10.255-9.614-2.991-9.614-2.991-1.281-5.09-6.628-4.6-6.516,7.6-6.516,7.6-5.834-1.274-7.1,4.074S2905.407,1126.769,2905.407,1126.769Z" transform="translate(1059.944 -780.951)" fill="url(#linear-gradient-5)"/>
      <path id="Path_62" data-name="Path 62" d="M2905.606,1127.422h21.7s6.461-5.2,3.765-10.629-9.965-3.1-9.965-3.1-1.327-5.276-6.87-4.772-6.754,7.873-6.754,7.873-6.047-1.321-7.358,4.223S2905.606,1127.422,2905.606,1127.422Z" transform="translate(1083.944 -760.605)" fill="url(#linear-gradient-5)"/>
      <path id="Path_63" data-name="Path 63" d="M2904.006,1122.17h15.552s4.63-3.724,2.7-7.617-7.141-2.222-7.141-2.222a4.616,4.616,0,0,0-4.924-3.42c-3.973.361-4.84,5.642-4.84,5.642s-4.334-.947-5.273,3.026S2904.006,1122.17,2904.006,1122.17Z" transform="translate(1079.944 -732.352)" fill="url(#linear-gradient-5)"/>
      <path id="Path_64" data-name="Path 64" d="M2903.442,1120.319h13.385s3.985-3.206,2.323-6.556-6.146-1.912-6.146-1.912a3.973,3.973,0,0,0-4.238-2.944c-3.42.311-4.166,4.856-4.166,4.856s-3.73-.815-4.539,2.6S2903.442,1120.319,2903.442,1120.319Z" transform="translate(1107.944 -715.427)" fill="url(#linear-gradient-5)"/>
    </g>
  </g>
</svg>
