<svg xmlns="http://www.w3.org/2000/svg" xmlns:xlink="http://www.w3.org/1999/xlink" width="331.48" height="287.505" viewBox="0 0 331.48 287.505">
  <defs>
    <linearGradient id="linear-gradient" x1="0.591" y1="-0.214" x2="0.5" y2="1" gradientUnits="objectBoundingBox">
      <stop offset="0" stop-color="#ec98f6"/>
      <stop offset="1" stop-color="#000034"/>
    </linearGradient>
    <linearGradient id="linear-gradient-2" x1="0.5" x2="0.5" y2="1" gradientUnits="objectBoundingBox">
      <stop offset="0" stop-color="#000034"/>
      <stop offset="1" stop-color="#5b1baf"/>
    </linearGradient>
    <linearGradient id="linear-gradient-3" x1="0.5" x2="0.5" y2="1" gradientUnits="objectBoundingBox">
      <stop offset="0" stop-color="#b598db"/>
      <stop offset="0.707" stop-color="#c8b2e4"/>
      <stop offset="1" stop-color="#fff"/>
    </linearGradient>
    <linearGradient id="linear-gradient-4" x1="0.5" x2="0.5" y2="1" gradientUnits="objectBoundingBox">
      <stop offset="0" stop-color="#cebee2"/>
      <stop offset="1" stop-color="#faf5fb"/>
    </linearGradient>
  </defs>
  <g id="logo-t" transform="translate(-1398 895)">
    <path id="Exclusion_6" data-name="Exclusion 6" d="M314.752,320H59.249a34.571,34.571,0,0,1-9.342-1.268,33.248,33.248,0,0,1-8.183-3.537A34.4,34.4,0,0,1,25.2,286.4a33.249,33.249,0,0,1,1.075-8.85,34.572,34.572,0,0,1,3.618-8.706l27.2-46.545-.05.017,45.814-78.5.009-.012c.153-.208.321-.431.435-.583L57.093,222.3a30.334,30.334,0,0,1,9.23-1.323,35.076,35.076,0,0,1,9.608,1.341c3.436.978,10,4.565,18.315,9.106,16.916,9.24,40.083,21.893,54.428,21.893.2,0,.377,0,.539-.006,4.546-.1,9.761-1.331,15.945-3.754,5.518-2.16,11.317-5.068,16.925-7.881l.018-.009c11.939-5.987,24.284-12.178,35.529-12.178.377,0,.77.008,1.167.023,10.743.417,18.267,6.026,24.9,10.974l.021.016a70.087,70.087,0,0,0,8.6,5.793,19.088,19.088,0,0,0,9.184,2.54,17.805,17.805,0,0,0,4.8-.687c6.669-1.873,11.539-9.69,16.694-17.966l.008-.012c3.421-5.491,6.959-11.169,11.179-15.282,7.164-6.982,11.16-8.024,12.9-8.024a3.485,3.485,0,0,1,.85.1l-40.455-69.228c.611.772.954,1.223,1.016,1.306l39.885,68.094a1.622,1.622,0,0,0-.446-.172L344.1,268.848a34.571,34.571,0,0,1,3.618,8.706,33.251,33.251,0,0,1,1.075,8.85c-.2,11.8-30.886,33.6-34.043,33.6ZM103.309,143.217h0l54.335-92.979a34.556,34.556,0,0,1,5.753-7.37A33.276,33.276,0,0,1,170.51,37.6a34.391,34.391,0,0,1,32.98,0,33.276,33.276,0,0,1,7.112,5.264,34.555,34.555,0,0,1,5.753,7.37l51.133,87.5c-1.2-1.517-3.207-3.982-5.955-7.108a212.391,212.391,0,0,0-18.392-18.517,136.563,136.563,0,0,0-26.024-18.517c-10.536-5.585-20.586-8.417-29.869-8.417-.4,0-.813,0-1.212.016-9.376.248-19.583,3.485-30.339,9.621a147.509,147.509,0,0,0-26.665,20.1,234.593,234.593,0,0,0-18.958,19.9c-3.487,4.116-5.891,7.247-6.762,8.4Z" transform="translate(1372.803 -928.389)" fill="url(#linear-gradient)"/>
    <path id="Path_38" data-name="Path 38" d="M3128.85,1163.12l-269.094-.686s-23.987-5.629-28.3-22.984,6.236-34.71,6.236-34.71l27.825-46.437s6.814-1.907,19.872,1.979,43.727,28.847,69.551,29.613,32.7-22.517,60.947-23.549,34.541,14.692,52.03,19.421c14.556,3.935,29.976-41.006,47.733-41.006l37.473,61.134s13.372,12.123,7.1,35.215S3128.85,1163.12,3128.85,1163.12Z" transform="translate(-1432.417 -1770.623)" fill="url(#linear-gradient-2)"/>
    <g id="Group_6" data-name="Group 6" transform="translate(-1413.197 -1900.389)">
      <path id="Path_2" data-name="Path 2" d="M2987.27,1204.77s-3.416,37.362,10.034,60.847,29.249,26.047,29.249,26.047H2917.67s16.012-2.989,29.249-26.047,11.956-60.847,11.956-60.847Z" fill="url(#linear-gradient-3)"/>
      <path id="Path_3" data-name="Path 3" d="M2965.57,1204.77s-2.351,37.362,6.906,60.847,20.13,26.047,20.13,26.047H2917.67s11.021-2.989,20.131-26.047,8.229-60.847,8.229-60.847Z" transform="translate(17.372)" fill="url(#linear-gradient-4)"/>
      <path id="Exclusion_1" data-name="Exclusion 1" d="M52.734,206.9H29.606a61.019,61.019,0,0,0,4.938-12.308,94.877,94.877,0,0,0,3.48-33.332,135.156,135.156,0,0,0-7.316-34.86,105.381,105.381,0,0,0-5.858-13.834L9,140.308,0,99.362,15.82,82.709a75.929,75.929,0,0,1-3.088-13.34,76.894,76.894,0,0,1-.776-13.533,58.816,58.816,0,0,1,2.476-15.315,71.3,71.3,0,0,1,6.9-15.054,120.508,120.508,0,0,1,8.955-12.96A137.2,137.2,0,0,1,41.355,0l.01.007A116.286,116.286,0,0,1,52.292,11.4a106.328,106.328,0,0,1,8.939,12.2,67.967,67.967,0,0,1,7.046,14.7,63.276,63.276,0,0,1,2.839,15.662,89.953,89.953,0,0,1-.315,14.3,92.5,92.5,0,0,1-2.524,14.45L84.1,98.252l-9.159,42.056L59.673,112.564c-.024.052-2.983,6.422-6.067,15.5-2.858,8.417-6.437,21.007-7.255,33.19a118.964,118.964,0,0,0,2.6,31.663,116.594,116.594,0,0,0,3.786,13.975ZM41.648,52.287a12.5,12.5,0,1,0,12.5,12.5,12.5,12.5,0,0,0-12.5-12.5Z" transform="translate(2930.351 1085.213)" fill="#fff"/>
    </g>
  </g>
</svg>
